HIERARCHY
ROOT Hips
{
  OFFSET -35.2597 29.1586 114.425
  CHANNELS 6 Xposition Yposition Zposition Zrotation Xrotation Yrotation
  JOINT LeftUpLeg
  {
    OFFSET 8.64259 1.95398 -2.38835
    CHANNELS 3 Zrotation Xrotation Yrotation
    JOINT LeftLeg
    {
      OFFSET 43.7702 0 0
      CHANNELS 3 Zrotation Xrotation Yrotation
      JOINT LeftFoot
      {
        OFFSET 40.6238 0 0
        CHANNELS 3 Zrotation Xrotation Yrotation
        JOINT LeftToeBase
        {
          OFFSET 12.7242 0 0
          CHANNELS 3 Zrotation Xrotation Yrotation
          End Site
          {
            OFFSET 0 0 0
          }
        }
      }
    }
  }
  JOINT RightUpLeg
  {
    OFFSET -8.2249 1.95398 -2.59336
    CHANNELS 3 Zrotation Xrotation Yrotation
    JOINT RightLeg
    {
      OFFSET 43.5653 0 0
      CHANNELS 3 Zrotation Xrotation Yrotation
      JOINT RightFoot
      {
        OFFSET 40.6238 0 0
        CHANNELS 3 Zrotation Xrotation Yrotation
        JOINT RightToeBase
        {
          OFFSET 12.7242 0 0
          CHANNELS 3 Zrotation Xrotation Yrotation
          End Site
          {
            OFFSET 0 0 0
          }
        }
      }
    }
  }
  JOINT Spine
  {
    OFFSET 0.165834 0.87714 6.61349
    CHANNELS 3 Zrotation Xrotation Yrotation
    JOINT Spine1
    {
      OFFSET 7.38963 1.71661e-005 0
      CHANNELS 3 Zrotation Xrotation Yrotation
      JOINT Spine2
      {
        OFFSET 11.9445 1.14441e-005 0
        CHANNELS 3 Zrotation Xrotation Yrotation
        JOINT Spine3
        {
          OFFSET 14.7254 4.19617e-005 0
          CHANNELS 3 Zrotation Xrotation Yrotation
          JOINT Spine4
          {
            OFFSET 10.9679 0 0
            CHANNELS 3 Zrotation Xrotation Yrotation
            JOINT RightShoulder
            {
              OFFSET 2.46616 -1.6653 3.69651
              CHANNELS 3 Zrotation Xrotation Yrotation
              JOINT RightArm
              {
                OFFSET 13.0012 0 0
                CHANNELS 3 Zrotation Xrotation Yrotation
                JOINT RightForeArm
                {
                  OFFSET 28.7848 1.62311e-005 0
                  CHANNELS 3 Zrotation Xrotation Yrotation
                  JOINT RightHand
                  {
                    OFFSET 26.5688 1.62095e-005 0
                    CHANNELS 3 Zrotation Xrotation Yrotation
                    End Site
                    {
                      OFFSET 0 0 0
                    }
                  }
                }
              }
            }
            JOINT LeftShoulder
            {
              OFFSET 2.38034 -1.29275 -3.7523
              CHANNELS 3 Zrotation Xrotation Yrotation
              JOINT LeftArm
              {
                OFFSET 16.3182 6.07031e-005 0
                CHANNELS 3 Zrotation Xrotation Yrotation
                JOINT LeftForeArm
                {
                  OFFSET 27.0901 0 0
                  CHANNELS 3 Zrotation Xrotation Yrotation
                  JOINT LeftHand
                  {
                    OFFSET 24.5451 1.51738e-005 0
                    CHANNELS 3 Zrotation Xrotation Yrotation
                    End Site
                    {
                      OFFSET 0 0 0
                    }
                  }
                }
              }
            }
            JOINT Neck
            {
              OFFSET 5.0226 -0.0266342 0
              CHANNELS 3 Zrotation Xrotation Yrotation
              JOINT Head
              {
                OFFSET 6.69364 2.86102e-005 0
                CHANNELS 3 Zrotation Xrotation Yrotation
                End Site
                {
                  OFFSET 0 0 0
                }
              }
            }
          }
        }
      }
    }
  }
}
MOTION
Frames:	18
Frame Time:	0.0416667
-119.726 12.4297 113.555 -15.1992 -2.89377 -92.1513 -169.826 -9.15527 95.4473 -21.1806 0.589187 -0.653209 70.1564 7.08885 -3.81039 22.2132 -9.75582 10.7268 163.041 -7.62312 75.699 -24.9292 -8.17711 1.82861 69.6117 -5.11484 4.10736 35.3508 -2.76403 0.0731672 -0.753677 7.9545 -89.2322 10.971 -1.14486 1.63649 -0.700581 -1.07174 1.68526 -23.2347 -1.58374 1.21681 -3.22203 -1.58374 1.21679 82.4339 -25.7107 -124.007 19.2357 43.4477 108.379 -33.6984 33.6083 -136.529 -98.5184 25.5602 -27.4593 -89.4113 -39.8479 77.2888 28.29 72.0621 132.079 -25.712 64.0084 -153.367 118.644 -49.2271 -33.3842 44.0495 3.01296 -6.15163 -5.78375 5.89624 3.32603 
-119.608 12.8968 113.126 -14.1895 -0.889089 -92.7603 -169.859 -8.69872 94.4504 -20.3856 0.0393749 -1.25227 69.2939 6.99304 -2.75092 22.5025 -9.3761 10.4315 163.965 -4.80005 75.8846 -27.061 -10.9855 1.0791 69.4051 -5.35598 0.761969 36.437 -3.29407 0.467135 -0.648747 7.82089 -89.0359 11.2353 -0.8425 2.00297 -0.436962 -0.753538 2.03807 -22.9652 -1.40543 1.65731 -2.95253 -1.40544 1.6573 81.5708 -26.9162 -124.907 19.3535 43.4301 106.428 -33.2471 32.5844 -136.278 -98.0526 25.3514 -27.4499 -87.0641 -36.4035 80.5063 8.12632 55.1782 139.515 -10.0781 35.5043 -165.056 131.231 -40.2133 -22.1569 44.046 1.9633 -9.53627 -6.23669 6.55662 6.00481 
-119.634 12.8055 113.224 -14.2062 -1.20878 -92.9532 -170.034 -8.82979 94.2769 -20.1755 0.477826 -1.17298 69.0697 6.92886 -2.42513 22.3043 -9.19634 9.93112 163.675 -4.92263 75.564 -26.8866 -10.8194 1.21466 69.4521 -5.3288 1.1369 37.0069 -3.47606 0.234504 -0.670829 7.79954 -89.0288 11.2788 -0.882683 2.0213 -0.393497 -0.792898 2.05815 -22.9218 -1.44928 1.66273 -2.9092 -1.44928 1.6627 82.0165 -26.3796 -124.391 19.5288 39.0198 106.358 -32.9869 31.9621 -136.095 -101.205 23.404 -24.6748 -87.5418 -36.5308 79.6961 36.4306 73.6551 111.752 -24.3214 56.8259 -153.227 133.426 -42.281 -22.1676 43.6428 2.06191 -9.48942 -5.95618 6.61233 5.80968 
-119.643 12.793 113.251 -14.1635 -1.28357 -92.9046 -170.059 -8.69032 94.3302 -20.3518 0.0770421 -1.14393 69.1976 6.83652 -3.12114 22.4816 -9.24459 10.1982 163.619 -4.9348 75.5411 -26.7379 -11.1289 1.26414 69.3771 -5.31773 1.10889 36.393 -3.16989 -0.0309668 -0.634346 7.77086 -89.0482 11.3356 -0.81856 1.97715 -0.336634 -0.730795 2.01121 -22.865 -1.37487 1.63986 -2.8523 -1.37487 1.63982 82.8217 -25.854 -123.146 19.9337 33.7349 105.844 -32.7669 31.3999 -135.904 -105.061 20.6764 -21.2006 -87.8512 -36.7959 79.214 118.458 74.1253 29.7734 -71.112 72.9208 -109.391 134.339 -45.8067 -23.3876 43.3291 1.92078 -9.90997 -6.01848 6.6236 6.82392 
-119.649 12.7543 113.348 -14.1833 -1.45289 -93.0184 -170.234 -8.82149 94.0983 -20.2159 0.181283 -1.07219 69.1388 6.88152 -2.77613 22.3013 -9.21534 9.95856 163.352 -4.89465 75.2661 -26.7362 -11.3974 1.39443 69.2049 -5.24918 0.829099 38.4738 -4.10322 0.404349 -0.64874 7.77301 -89.069 11.3316 -0.857007 1.93962 -0.340552 -0.770822 1.97544 -22.8695 -1.40025 1.5925 -2.8569 -1.40025 1.59252 82.8955 -25.6022 -123.161 19.9228 34.0388 104.658 -33.8622 31.742 -134.904 -106.245 19.8262 -20.2155 -88.0571 -37.427 79.006 151.6 54.8433 -1.24567 -150.795 57.1603 -34.0064 127.814 -54.7373 -31.3714 43.5351 2.16759 -8.93662 -6.0093 6.41102 5.81054 
-119.63 12.7063 113.407 -14.1806 -1.66736 -92.9321 -170.341 -8.74803 94.1304 -20.3566 0.234926 -0.945799 69.3074 6.96073 -2.82463 22.6981 -9.26927 10.4701 163.294 -5.1359 75.3375 -26.4987 -11.0031 1.47656 69.4116 -5.37755 1.00644 38.0478 -3.93664 0.4297 -0.637427 7.76708 -89.1107 11.3388 -0.853807 1.85679 -0.333216 -0.771234 1.89257 -22.8629 -1.37232 1.51447 -2.8503 -1.3723 1.51446 83.3144 -25.3697 -122.475 19.9719 33.2236 103.618 -35.1568 32.1455 -133.755 -107.966 18.4232 -18.7084 -88.2119 -37.7537 78.8159 163.379 27.5184 -10.7137 -172.333 17.5035 -19.6017 106.947 -64.0185 -52.1387 43.5168 2.2575 -8.62116 -6.05328 6.32333 5.89474 
-119.637 12.7584 113.318 -14.1845 -1.36031 -93.0157 -170.223 -8.81376 94.1173 -20.2255 0.514734 -1.07021 69.0195 6.8599 -2.59208 22.7212 -9.11629 10.2493 163.468 -4.91792 75.3508 -26.7877 -11.0656 1.3083 69.4688 -5.35619 1.14344 38.0995 -3.885 0.0592245 -0.56667 7.77027 -89.1245 11.336 -0.719478 1.81534 -0.336057 -0.638883 1.84525 -22.8652 -1.23174 1.51532 -2.85257 -1.23173 1.51531 83.7155 -25.3138 -121.704 19.974 33.0883 101.953 -37.0467 32.6384 -132.067 -109.52 17.2935 -17.5136 -88.4172 -38.0102 78.523 169.512 6.82222 -6.13849 -178.522 -0.810782 -17.8175 105.758 -60.5762 -50.8625 43.0852 2.13241 -8.79384 -5.70318 6.24202 6.75096 
-119.634 12.7575 113.318 -14.2177 -1.49683 -93.0409 -170.179 -8.83084 94.1648 -20.1983 0.585599 -1.07764 69.1373 6.95904 -2.51572 22.0575 -9.09753 9.51145 163.375 -4.96367 75.2984 -26.753 -11.1646 1.38251 69.372 -5.3273 0.941354 38.2242 -3.96267 0.198178 -0.550978 7.78457 -89.1756 11.3073 -0.712309 1.71244 -0.364607 -0.63628 1.74212 -22.8946 -1.19401 1.41929 -2.882 -1.194 1.41928 84.3567 -24.6203 -120.838 20.1106 31.8872 100.709 -38.7674 33.154 -130.639 -111.492 15.4889 -15.8134 -88.6379 -38.5267 78.2704 -177.455 -43.7213 -10.7525 146.755 -62.1472 -40.4562 74.9611 -60.6672 -76.6088 43.2591 2.39691 -7.72395 -5.62899 5.97808 6.11647 
-119.642 12.7566 113.271 -14.1058 -1.36363 -92.9441 -170.128 -8.78041 94.2531 -20.1274 0.592412 -1.09208 69.1383 6.93984 -2.63566 22.2149 -9.22855 9.88778 163.538 -4.91653 75.5 -26.7425 -11.2349 1.31517 69.4257 -5.39335 0.780106 37.98 -3.89657 0.36511 -0.496112 7.76656 -89.217 11.3427 -0.622223 1.62146 -0.329182 -0.550233 1.64727 -22.8594 -1.08072 1.35956 -2.84679 -1.08074 1.35958 84.8128 -24.268 -120.12 20.1224 31.3677 99.6008 -40.8034 33.7149 -128.978 -113.09 14.1341 -14.5836 -88.8677 -38.9043 77.9714 -166.852 -57.8413 -2.75228 126.828 -69.3161 -58.4747 83.349 -58.4126 -66.4511 43.2269 2.45676 -7.19143 -5.58108 5.76544 5.96124 
-119.64 12.7315 113.295 -14.1264 -1.47401 -93.009 -170.25 -8.76041 94.1266 -20.2285 0.50579 -1.03131 69.0654 6.92049 -2.4415 22.7685 -9.11217 10.2929 163.449 -4.98341 75.4135 -26.6878 -10.9421 1.36523 69.5797 -5.46154 0.935343 37.7618 -3.81891 0.417752 -0.477861 7.77887 -89.2452 11.3216 -0.599147 1.56254 -0.350209 -0.529822 1.58737 -22.8808 -1.04103 1.31028 -2.86814 -1.04102 1.3103 85.2279 -23.9438 -119.458 20.0141 31.7433 98.5825 -42.9069 34.2502 -127.295 -113.996 13.3434 -13.9004 -89.0314 -39.032 77.7247 -176.486 -43.5689 -8.4105 153.079 -58.1289 -34.8402 85.1822 -60.0966 -66.5302 43.4106 2.53602 -6.69586 -5.68498 5.59705 5.76947 
-119.636 12.7446 113.302 -14.118 -1.43308 -93.0519 -170.267 -8.81645 94.0706 -20.097 0.44933 -1.0408 68.9875 6.88786 -2.47514 22.8117 -8.94964 10.0765 163.467 -4.90007 75.3821 -26.812 -10.7638 1.34389 69.6494 -5.46398 1.08686 37.906 -3.88455 0.455562 -0.427343 7.78202 -89.2853 11.3207 -0.51738 1.47391 -0.350953 -0.452017 1.49525 -22.8818 -0.936416 1.25032 -2.86917 -0.93641 1.25033 85.9493 -23.5056 -118.214 20.2348 30.5182 97.0457 -44.26 34.305 -126.052 -115.862 12.3194 -12.9354 -89.2506 -39.2635 77.4107 -123.564 -74.411 36.9457 81.4643 -72.0866 -101.274 94.9612 -53.8292 -52.3932 43.3939 2.56431 -6.28569 -5.61932 5.40384 5.96808 
-119.635 12.7254 113.366 -14.1648 -1.53111 -93.0556 -170.294 -8.87414 94.0467 -20.0605 0.611611 -1.02638 68.9833 6.92482 -2.30516 22.335 -8.90906 9.50354 163.338 -4.95571 75.28 -26.7596 -10.8397 1.42655 69.5356 -5.38528 1.15673 38.1094 -3.93883 0.314079 -0.398162 7.77423 -89.3255 11.3261 -0.47795 1.39084 -0.345513 -0.416273 1.41051 -22.8768 -0.873832 1.18294 -2.86413 -0.87383 1.18294 86.3028 -23.3901 -117.535 20.0921 31.4891 95.8105 -45.7078 34.396 -124.778 -116.472 12.96 -13.2495 -89.5096 -39.5276 77.0407 -125.81 -74.2324 35.0416 85.036 -72.3983 -97.9082 93.5005 -53.7843 -53.5099 43.055 2.40103 -6.10755 -5.5726 5.12794 6.37108 
-119.612 12.7678 113.335 -14.1912 -1.3959 -93.0009 -170.178 -8.92213 94.1305 -19.982 0.808305 -1.08656 68.9731 6.98136 -2.04144 22.7096 -8.95862 9.98109 163.404 -4.87855 75.3554 -26.8784 -10.7219 1.41211 69.5765 -5.4062 1.15185 37.9668 -3.90683 0.444576 -0.356407 7.77041 -89.3791 11.3338 -0.419744 1.27836 -0.337766 -0.363081 1.2956 -22.8695 -0.784519 1.09317 -2.85689 -0.784533 1.09316 86.4247 -23.2363 -117.367 19.6328 33.5719 95.8421 -47.1038 34.7828 -123.77 -116.077 14.4239 -14.2439 -89.8246 -39.97 76.6259 -168.245 -56.2852 -2.61807 136.552 -66.9364 -49.441 83.107 -58.043 -66.2809 43.0042 2.38128 -5.66697 -5.72681 4.87511 6.29996 
-119.579 12.7522 113.337 -14.2554 -1.1992 -92.9636 -170.221 -9.03596 94.1066 -20.0836 0.387403 -1.0361 69.2435 7.11242 -2.44548 23.0046 -9.17804 10.6543 163.459 -4.85369 75.3637 -27.0447 -10.6064 1.38652 69.6476 -5.3997 1.22663 38.2676 -3.98538 0.22486 -0.308055 7.77468 -89.44 11.3251 -0.352007 1.1502 -0.346331 -0.301053 1.16456 -22.8787 -0.681404 0.99126 -2.866 -0.681391 0.991245 86.9026 -22.9328 -116.524 19.6775 34.0268 94.6149 -47.4092 34.5738 -123.368 -116.037 15.7593 -15.104 -90.1288 -40.136 76.1601 174.505 -19.8074 -12.2639 169.708 -36.3455 -22.4735 77.7451 -62.6051 -76.11 43.7942 2.34762 -4.8453 -6.46201 4.46126 5.3486 
-119.511 12.7604 113.339 -14.5099 -0.838234 -92.8459 -170.032 -9.43016 94.2769 -19.8997 0.75658 -1.07185 69.2422 7.27283 -1.96732 23.1746 -8.90605 10.3947 163.553 -4.91036 75.3695 -27.3443 -10.7012 1.25882 69.8423 -5.45972 1.41649 38.3151 -4.06585 0.542249 -0.234787 7.80288 -89.5209 11.2681 -0.244152 0.978318 -0.40315 -0.200856 0.988097 -22.9361 -0.526883 0.859716 -2.92343 -0.526881 0.859715 87.1755 -22.9412 -115.933 19.1895 37.0622 94.5939 -47.5353 34.6826 -123.325 -113.626 19.3777 -17.988 -90.1183 -40.1146 76.1722 177.527 -29.4307 -9.74373 165.49 -43.645 -25.1193 76.314 -60.8014 -75.5232 44.1549 2.28356 -4.60062 -6.64181 4.261 5.7194 
-119.386 12.8043 113.525 -14.7535 -0.457627 -93.0899 -170.142 -9.91225 93.949 -19.8173 0.995596 -1.0689 69.4882 7.40749 -2.15358 23.411 -9.21308 11.1533 163.048 -4.40641 74.6618 -28.0366 -11.3667 1.3953 69.6403 -5.34112 1.32964 39.286 -4.42198 0.362933 -0.253467 7.83821 -89.6098 11.1981 -0.32303 0.808268 -0.473001 -0.287152 0.8217 -23.007 -0.550999 0.67383 -2.99436 -0.551027 0.673816 86.7391 -23.6286 -116.467 17.9916 47.7197 94.4257 -48.3438 35.7047 -123.243 -105.506 27.1484 -26.1466 -89.7452 -40.3911 76.868 172.232 -19.7467 -14.1358 171.404 -32.4418 -21.7538 78.3324 -62.6023 -75.7945 43.3407 2.65847 -3.84326 -5.50515 4.24869 5.53399 
-119.126 12.5552 114.007 -15.2726 1.28855 -93.5006 -170.514 -11.6394 93.1394 -18.9507 -0.540823 -1.01189 70.1022 7.81271 -3.59158 24.504 -8.90388 11.8622 162.643 -3.6039 73.2974 -29.3602 -13.7363 0.949903 70.0327 -5.61345 0.799844 39.7285 -4.60959 0.418832 -0.0968855 7.87293 -89.6728 11.1278 -0.0408271 0.655194 -0.543373 -0.011968 0.656327 -23.0773 -0.23585 0.612638 -3.06467 -0.235859 0.612611 84.579 -27.2996 -118.793 16.0446 72.5669 91.1353 -52.3024 37.7658 -121.002 -81.9179 38.3733 -49.2379 -91.0937 -40.5474 74.6663 -35.4737 -60.6091 121.996 34.3839 -58.2694 -143.918 101.822 -47.9383 -42.5045 43.3327 1.92507 -5.57444 -5.91532 4.36229 7.30063 
-119.034 12.8955 114.622 -15.2286 -1.9028 -92.8908 -171.292 -9.4487 94.2655 -21.6945 3.56394 0.267031 71.5023 8.04477 -5.67002 23.5312 -8.90496 10.7884 161.501 -4.4989 73.5202 -28.5352 -11.0997 2.51491 70.2604 -5.74356 1.00543 38.1538 -3.9857 0.467456 -0.476942 7.78133 -90.002 11.3106 -0.950049 0.0898645 -0.359998 -0.945193 0.131596 -22.8979 -0.933139 -0.199853 -2.88525 -0.93314 -0.199837 85.9829 -26.6335 -116.356 23.2059 72.9137 82.8653 -53.2412 39.0477 -120.876 -76.1922 39.3146 -54.5814 -90.8541 -39.9322 74.8892 -18.5542 -20.2773 125.627 20.0773 -37.1632 -151.15 116.424 -33.5581 -24.5929 42.4788 2.08516 -5.044 -5.68791 4.25293 6.46297 
